<svg xmlns="http://www.w3.org/2000/svg" version="1.1" xmlns:xlink="http://www.w3.org/1999/xlink" xmlns:svgjs="http://svgjs.dev/svgjs" width="1500" height="935" viewBox="0 0 1500 935"><g transform="matrix(1,0,0,1,-0.9090909090909918,0.3785425101214628)"><svg viewBox="0 0 396 247" data-background-color="#ae95d3" preserveAspectRatio="xMidYMid meet" height="935" width="1500" xmlns="http://www.w3.org/2000/svg" xmlns:xlink="http://www.w3.org/1999/xlink"><g id="tight-bounds" transform="matrix(1,0,0,1,0.2400000000000091,-0.09999999999999432)"><svg viewBox="0 0 395.52 247.2" height="247.2" width="395.52"><g><svg></svg></g><g><svg viewBox="0 0 395.52 247.2" height="247.2" width="395.52"><g transform="matrix(1,0,0,1,121.37519999999999,47.215199999999996)"><svg viewBox="0 0 152.7696 152.7696" height="152.7696" width="152.7696"><g><svg viewBox="0 0 152.7696 152.7696" height="152.7696" width="152.7696"><g><svg viewBox="0 0 152.7696 152.7696" height="152.7696" width="152.7696"><g><svg viewBox="0 0 152.7696 152.7696" height="152.7696" width="152.7696"><g id="textblocktransform"><svg viewBox="0 0 152.7696 152.7696" height="152.7696" width="152.7696" id="textblock"><g><svg viewBox="0 0 152.7696 152.7696" height="152.7696" width="152.7696"><g transform="matrix(1,0,0,1,0,0)"><svg width="152.7696" viewBox="0 -50 43.75 43.75" height="152.7696" data-palette-color="#7924be"><path d="M12.5-6.25L0-6.25 0-50 12.5-50 12.5-43.75 18.75-43.75 18.75-37.5 25-37.5 25-43.75 31.25-43.75 31.25-50 43.75-50 43.75-6.25 31.25-6.25 31.25-31.25 25-31.25 25-18.75 18.75-18.75 18.75-31.25 12.5-31.25 12.5-6.25Z" opacity="1" transform="matrix(1,0,0,1,0,0)" fill="#7924be" class="wordmark-text-0" data-fill-palette-color="primary" id="text-0"></path></svg></g></svg></g></svg></g></svg></g></svg></g></svg></g></svg></g><g><path d="M199.985 0c30.402 0 58.24 10.976 79.768 29.183l-11.147 0c-19.26-14.022-42.974-22.294-68.621-22.295-25.647 0-49.361 8.272-68.621 22.295l-11.147 0c21.528-18.206 49.366-29.183 79.768-29.183zM323.585 123.6c0 11.422-1.549 22.483-4.45 32.983l0-65.966c2.9 10.5 4.45 21.56 4.45 32.983zM199.985 247.2c-30.402 0-58.24-10.976-79.768-29.183l11.147 0c19.26 14.022 42.974 22.294 68.621 22.295 25.647 0 49.361-8.272 68.621-22.295l11.147 0c-21.528 18.206-49.366 29.183-79.768 29.183z" fill="#7a26c1" stroke="transparent" data-fill-palette-color="tertiary"></path></g></svg></g><defs></defs></svg><rect width="395.52" height="247.2" fill="none" stroke="none" visibility="hidden"></rect></g></svg></g></svg>